PathFileType	4	(X/Y/Z)	D:\MotionData\Pi-Spi Study\20230118_AMCsubject1\Trimmed_right_horiz_add01_rotated.trc
DataRate	CameraRate	NumFrames	NumMarkers	Units	OrigDataRate	OrigDataStartFrame	OrigNumFrames
200.00	200.00	       11	35	mm	200.00	176	       200
Frame#	Time	C7			Sternum			r_AMC1			r_AMC2			r_AMC3			l_AMC1			l_AMC2			l_AMC3			PX			T8			r_humerous			r_elbow_medial			r_elbow_lateral			r_forearm			r_wrist_radius			r_wrist_ulna			r_MCP_1			r_MCP_3			l_humerous			l_elbow_medial			l_elbow_lateral			l_forearm			l_wrist_radius			l_wrist_ulna			l_MCP_1			l_MCP_3			r_ASIS			r_PSIS			l_ASIS			l_PSIS			r_IC			l_IC			TS			AI			AA			
		X1	Y1	Z1	X2	Y2	Z2	X3	Y3	Z3	X4	Y4	Z4	X5	Y5	Z5	X6	Y6	Z6	X7	Y7	Z7	X8	Y8	Z8	X9	Y9	Z9	X10	Y10	Z10	X11	Y11	Z11	X12	Y12	Z12	X13	Y13	Z13	X14	Y14	Z14	X15	Y15	Z15	X16	Y16	Z16	X17	Y17	Z17	X18	Y18	Z18	X19	Y19	Z19	X20	Y20	Z20	X21	Y21	Z21	X22	Y22	Z22	X23	Y23	Z23	X24	Y24	Z24	X25	Y25	Z25	X26	Y26	Z26	X27	Y27	Z27	X28	Y28	Z28	X29	Y29	Z29	X30	Y30	Z30	X31	Y31	Z31	X32	Y32	Z32	X33	Y33	Z33	X34	Y34	Z34	X35	Y35	Z35	

176	0.875	164.398	1373.9756	-220.6801	300.9631	1314.9667	-214.4723	181.2433	1357.3916	-61.6973	219.0135	1388.6804	-58.1014	213.3682	1402.7849	-99.6985	186.752	1319.1874	-383.2156	226.2413	1315.5951	-415.9162	245.9434	1354.5686	-385.7881	368.1326	1125.9175	-206.6195	133.7333	1187.1483	-222.6447	371.5614	1361.9382	-149.5503	491.6236	1276.5188	-187.1155	508.5092	1329.6614	-160.0933	640.5141	1352.2932	-267.5423	689.5844	1324.6346	-317.4761	680.4371	1374.6699	-326.132	751.5889	1338.8516	-376.6949	747.5666	1386.8404	-376.9973	319.0176	1127.0925	-404.1877	250.1002	992.9558	-390.7567	271.1471	991.6342	-441.5618	334.5815	847.1138	-460.0972	381.4721	778.7291	-438.1966	339.9981	770.3361	-454.6849	398.7516	701.5129	-448.1593	351.5392	695.5836	-459.8487	338.8284	909.8504	-71.0164	158.1198	927.8841	-167.3483	360.9993	892.2642	-328.9495	166.7633	920.7194	-269.5947	253.5435	970.4373	-47.9969	273.0544	939.02	-373.9105	92.6551	1297.5951	-105.2611	122.1719	1209.3079	-63.4796	170.0966	1363.4568	-2.2408
177	0.88	164.3986	1373.9962	-220.7132	300.9769	1314.9321	-214.4683	181.2465	1357.4114	-61.7117	219.0341	1388.6888	-58.1271	213.3597	1402.755	-99.7099	186.8441	1319.146	-383.2803	226.304	1315.5924	-415.9228	245.9869	1354.5635	-385.8204	368.1917	1125.9028	-206.5985	133.7494	1187.1469	-222.6808	371.6297	1362.1564	-149.4696	491.7451	1276.4203	-187.0994	508.5029	1329.637	-159.9946	640.5592	1352.3174	-267.4865	689.6402	1324.6289	-317.3971	680.4675	1374.6493	-326.0591	751.6295	1338.8379	-376.5904	747.6531	1386.8098	-376.9232	319.0387	1127.0458	-404.1619	250.0988	992.9631	-390.8014	271.1913	991.6331	-441.5841	334.5862	847.1258	-460.1307	381.4745	778.7218	-438.2405	340.078	770.1885	-454.6848	398.7473	701.5063	-448.207	351.5477	695.5829	-459.9174	338.8161	909.8619	-71.0319	158.0106	928.0354	-167.3339	360.9862	892.2833	-328.9891	166.7844	920.7207	-269.6253	253.514	970.5041	-48.0059	273.0287	939.0574	-373.9745	92.4264	1297.6422	-105.1292	122.2222	1209.3463	-63.6222	170.0912	1363.4717	-2.2695
178	0.885	164.4121	1373.9906	-220.7527	300.9689	1314.9799	-214.5141	181.2468	1357.3965	-61.7476	219.0839	1388.6735	-58.1666	213.3614	1402.8075	-99.7612	186.9085	1319.1172	-383.3099	226.348	1315.6014	-415.9384	245.9013	1354.7059	-385.9593	368.2081	1125.9282	-206.606	133.7777	1187.1488	-222.7067	371.6229	1361.9034	-149.5695	491.7188	1276.4293	-187.0395	508.4945	1329.618	-159.9699	640.6003	1352.2043	-267.41	689.7109	1324.5596	-317.3041	680.5664	1374.6019	-325.9656	751.7183	1338.7317	-376.5151	747.7291	1386.7751	-376.8438	319.0695	1127.0507	-404.2029	250.109	992.9837	-390.8422	271.2324	991.6453	-441.6235	334.6239	847.0699	-460.1765	381.4785	778.7174	-438.2816	340.0403	770.2835	-454.7816	398.7379	701.4875	-448.252	351.561	695.6106	-459.9939	338.8649	909.8487	-71.0752	158.0207	928.0353	-167.3554	361.0016	892.2414	-329.0135	166.8031	920.7379	-269.654	253.5617	970.491	-48.0235	273.0493	938.967	-374.1775	92.6602	1297.6748	-105.3587	122.1853	1209.3574	-63.6304	170.0645	1363.4681	-2.3317
179	0.89	164.4051	1373.9849	-220.7666	300.9914	1314.9783	-214.5082	181.2254	1357.4093	-61.758	219.0477	1388.6561	-58.1515	213.348	1402.7557	-99.7968	186.8814	1319.1777	-383.3294	226.3662	1315.5994	-415.9688	245.9194	1354.7012	-385.9749	368.2086	1125.9686	-206.594	133.7914	1187.1522	-222.7599	371.631	1361.9281	-149.5746	491.761	1276.354	-187.0445	508.5202	1329.603	-159.9525	640.6428	1352.2227	-267.3618	689.7826	1324.5297	-317.2329	680.621	1374.541	-325.9145	751.766	1338.7306	-376.4169	747.7581	1386.7654	-376.7679	319.0735	1127.0992	-404.2803	250.1155	992.972	-390.8822	271.2454	991.6588	-441.6598	334.5912	847.1037	-460.2238	381.4861	778.7205	-438.3234	340.0896	770.241	-454.8014	399.0293	701.5503	-448.3684	351.5481	695.6184	-460.0587	338.8992	909.8626	-71.1414	158.0339	928.0246	-167.3725	361.0386	892.2675	-329.0544	166.8073	920.7224	-269.6826	253.5504	970.4936	-48.0616	273.1307	939.0011	-374.0014	92.6475	1297.6757	-105.4263	122.1675	1209.4135	-63.6537	170.0561	1363.5162	-2.3674
180	0.895	164.4189	1373.9844	-220.8103	301.0002	1314.9998	-214.507	181.217	1357.3937	-61.8111	219.0505	1388.6049	-58.2157	213.3216	1402.809	-99.7467	186.9273	1319.1676	-383.3472	226.4104	1315.6141	-415.9938	246.0798	1354.5515	-385.8798	368.2179	1125.9749	-206.5974	133.8013	1187.1554	-222.8033	371.6583	1361.8788	-149.5693	491.7443	1276.3538	-187.0224	508.5584	1329.5732	-159.9443	640.6941	1352.1111	-267.2663	689.8022	1324.4783	-317.1327	680.7303	1374.447	-325.8415	751.8667	1338.6111	-376.3154	747.8684	1386.6668	-376.6949	319.1584	1126.9804	-404.2434	250.151	993.0151	-390.9153	271.2614	991.6602	-441.7074	334.6435	847.0888	-460.2697	381.4887	778.7108	-438.3665	340.0791	770.2775	-454.9062	398.7697	701.5019	-448.372	351.5682	695.6274	-460.1267	338.9136	909.882	-71.1745	158.0446	928.06	-167.3826	361.0718	892.2642	-329.0821	166.8194	920.7479	-269.6722	253.6568	970.4614	-48.0695	273.2488	938.9017	-374.0117	92.6208	1297.6857	-105.4817	122.1629	1209.4279	-63.715	170.0356	1363.519	-2.4007
181	0.9	164.4515	1373.9877	-220.8356	301.034	1315.0061	-214.5434	181.2175	1357.4142	-61.8321	219.0372	1388.6354	-58.2259	213.376	1402.7537	-99.7877	187.0055	1319.1023	-383.3762	226.4444	1315.6013	-416.0111	246.1048	1354.5697	-385.9015	368.2753	1126.0094	-206.6357	133.8224	1187.141	-222.8518	371.6625	1361.9102	-149.5789	491.785	1276.3038	-187.0031	508.5608	1329.5558	-159.8976	640.7236	1352.1003	-267.2108	689.8974	1324.4357	-317.0908	680.7871	1374.4047	-325.7639	751.9294	1338.5573	-376.2247	747.9506	1386.6161	-376.5924	319.1369	1127.043	-404.2959	250.1822	992.9898	-390.9745	271.2777	991.6639	-441.7483	334.6567	847.069	-460.301	381.4989	778.6976	-438.3943	340.0995	770.2598	-454.9516	399.0573	701.5341	-448.4691	351.5559	695.6361	-460.2088	338.934	909.864	-71.1893	158.2315	927.895	-167.4918	361.0935	892.2594	-329.098	166.8477	920.7333	-269.73	253.6347	970.4734	-48.1136	273.2122	938.9597	-373.9837	92.6351	1297.7035	-105.5399	122.1472	1209.4033	-63.791	170.0005	1363.4887	-2.4029
182	0.905	164.4581	1373.9908	-220.8671	301.0578	1314.9982	-214.5165	181.2053	1357.4073	-61.8567	219.0335	1388.6121	-58.2449	213.3405	1402.7832	-99.8117	187.0054	1319.1588	-383.4001	226.4842	1315.5891	-416.0353	246.1542	1354.5687	-385.9126	368.3383	1126.0129	-206.5958	133.8624	1187.1433	-222.8612	371.6897	1361.8218	-149.5485	491.8466	1276.2919	-186.942	508.4947	1329.4928	-159.9719	640.8231	1352.0017	-267.1655	689.939	1324.3845	-317.0172	680.8344	1374.3474	-325.6799	752.0244	1338.4324	-376.1369	748.0671	1386.4998	-376.5204	319.1935	1126.9799	-404.252	250.1993	992.9864	-391.0249	271.3581	991.7302	-441.7815	334.7248	847.063	-460.3238	381.5161	778.7052	-438.4566	340.1256	770.2609	-454.9952	399.0885	701.5618	-448.5109	351.5843	695.6374	-460.2579	338.9613	909.8547	-71.2279	158.258	927.901	-167.4922	361.1309	892.2592	-329.1413	166.8692	920.7396	-269.7369	253.7	970.4153	-48.1385	273.4046	938.8357	-374.027	92.6435	1297.7283	-105.6026	122.1757	1209.4474	-63.8575	170.0159	1363.4816	-2.4344
183	0.91	164.4698	1373.9866	-220.8796	301.0247	1315.0051	-214.5785	181.2046	1357.416	-61.8625	219.0272	1388.6268	-58.2567	213.399	1402.76	-99.8171	187.0034	1319.168	-383.4162	226.5236	1315.6047	-416.045	246.0538	1354.7041	-386.0532	368.3576	1126.0309	-206.6127	133.8633	1187.1333	-222.9176	371.7014	1361.828	-149.5532	491.8202	1276.271	-186.9476	508.5016	1329.4719	-159.9451	640.8512	1351.9468	-267.0876	690.0318	1324.3223	-316.9267	680.8909	1374.2966	-325.5946	752.0983	1338.3865	-376.0102	748.1408	1386.4509	-376.4178	319.2197	1127.0106	-404.3097	250.2277	992.9774	-391.0548	271.3401	991.6739	-441.7871	334.7405	847.0906	-460.3893	381.5335	778.7222	-438.5038	340.1348	770.3052	-455.0559	399.0936	701.5462	-448.5763	351.5892	695.6463	-460.3266	338.9771	909.8509	-71.2498	158.1168	928.0377	-167.4913	361.1329	892.2312	-329.1242	166.8646	920.7511	-269.7763	253.7129	970.4137	-48.1491	273.3573	938.8665	-374.0014	92.6263	1297.7306	-105.6324	122.1386	1209.4087	-63.9058	169.9945	1363.4828	-2.4927
184	0.915	164.4853	1373.9904	-220.9295	301.0443	1315.0016	-214.5736	181.2174	1357.4034	-61.8864	219.0172	1388.6636	-58.3063	213.3899	1402.7293	-99.8213	187.0502	1319.1385	-383.4243	226.5617	1315.6172	-416.0715	246.2138	1354.5717	-385.9583	368.3813	1126.0369	-206.636	133.8669	1187.1459	-222.9416	371.7455	1361.7523	-149.5373	491.8474	1276.2112	-186.8777	508.5216	1329.4299	-159.9211	640.9241	1351.8867	-267.0269	690.0967	1324.2858	-316.8096	680.9454	1374.2465	-325.5317	752.2021	1338.2387	-375.9304	748.2433	1386.3274	-376.3527	319.2366	1126.9804	-404.322	250.2476	993.005	-391.1018	271.4688	991.8472	-441.884	334.7765	847.0629	-460.4476	381.5362	778.7091	-438.5368	340.1979	770.2567	-455.1069	399.0949	701.5531	-448.6145	351.6163	695.635	-460.4053	338.981	909.8486	-71.2854	158.2684	927.9097	-167.5581	361.1569	892.2192	-329.1815	166.8836	920.7394	-269.7894	253.7537	970.3683	-48.187	273.4506	938.8287	-374.083	92.6397	1297.7626	-105.6997	122.1365	1209.4618	-63.9433	169.9499	1363.4928	-2.5234
185	0.92	164.4803	1373.9846	-220.9564	301.0615	1315.0199	-214.6097	181.2062	1357.3915	-61.9345	219.021	1388.6182	-58.2834	213.4	1402.7238	-99.8283	187.0839	1319.145	-383.4609	226.5719	1315.608	-416.1018	246.2327	1354.553	-385.9778	368.3831	1126.0658	-206.6347	133.8695	1187.1461	-222.9947	371.7573	1362.0085	-149.4194	491.8392	1276.224	-186.8836	508.5342	1329.4065	-159.9108	640.9661	1351.8325	-266.9554	690.2103	1324.155	-316.6796	680.9967	1374.136	-325.4418	752.277	1338.2046	-375.7995	748.2883	1386.2311	-376.2505	319.3259	1126.9166	-404.3774	250.2622	993.0118	-391.1415	271.3813	991.6933	-441.9006	334.8118	847.0853	-460.521	381.5734	778.7139	-438.5972	340.1702	770.3198	-455.229	399.1351	701.5732	-448.665	351.6317	695.6342	-460.4998	339.0288	909.8334	-71.3308	158.2864	927.9194	-167.6098	360.4774	892.0041	-329.0752	166.9008	920.7487	-269.8392	253.7578	970.366	-48.2109	273.3667	938.9174	-374.1133	92.6189	1297.7826	-105.7691	122.1096	1209.4383	-64.0014	169.9251	1363.4879	-2.5782
186	0.925	164.5148	1373.9889	-220.9859	301.0822	1315.0281	-214.6132	181.1963	1357.4032	-61.9529	218.9916	1388.658	-58.2985	213.4569	1402.7221	-99.8475	187.167	1319.0725	-383.4999	226.6191	1315.6169	-416.1116	246.251	1354.5637	-385.9962	368.4912	1126.0862	-206.5993	133.8873	1187.141	-223.0394	371.8319	1361.691	-149.524	491.9042	1276.0958	-186.8623	508.5308	1329.3577	-159.8671	640.9903	1351.8378	-266.8848	690.2694	1324.1145	-316.6205	681.036	1374.1031	-325.3601	752.352	1338.1158	-375.697	748.3943	1386.1512	-376.1647	319.3815	1126.8463	-404.3694	250.2914	993.0019	-391.1928	271.3826	991.7188	-441.945	334.8524	847.1017	-460.5481	381.5881	778.7059	-438.634	340.2609	770.12	-455.1459	399.1417	701.5561	-448.7357	351.6926	695.6448	-460.5663	339.0326	909.8445	-71.319	158.1647	928.0502	-167.5579	360.5421	892.0085	-329.0925	166.9122	920.7546	-269.8546	253.7399	970.4359	-48.2572	273.4061	938.9475	-374.2	92.6395	1297.7762	-105.821	122.0853	1209.4413	-64.0107	169.9047	1363.5179	-2.5646
